<?xml version="1.0" encoding="utf-8" ?><svg xmlns="http://www.w3.org/2000/svg" xmlns:xlink="http://www.w3.org/1999/xlink" width="1024" height="1024" viewBox="0 0 1024 1024"><path transform="scale(2 2)" d="M178.588 225.779C182.111 218.815 197.907 198.445 203.167 193.583C207.994 189.121 215.385 188.78 221.463 187.476C242.322 184.057 257.452 153.38 270.39 149.301C276.629 148.998 278.861 151.591 281.311 156.965C287.214 169.906 293.175 182.858 298.736 195.95C302.287 192.218 306.198 188.609 309.832 185.031C317.919 177.067 322.218 182.816 329.782 187.991L344.097 197.855C353.12 204.141 362.948 210.56 371.603 217.256L392.862 210.039C400.598 207.465 408.459 203.474 414.038 213.004C417.674 219.216 407.594 241.288 405.305 248.69C408.145 248.791 438.676 248.632 440.77 248.202C451.053 246.092 459.864 252.939 460.38 263.628C460.701 270.275 455.903 275.476 451.325 280.795C437.399 296.973 419.438 309.546 399.193 316.459C382.041 322.316 389.584 318.861 376.44 331.914C349.937 358.232 325.402 361.094 289.12 361.1L246.859 361.093L218.059 361.103C185.581 361.104 157.906 356.88 134.816 330.318C124.281 318.199 123.544 322.327 110.279 316.41C93.9074 309.556 54.0469 284.364 51.8816 264.931C51.2398 246.122 67.5011 248.228 80.0564 248.231L111.792 248.245C116.525 232.589 120.788 216.67 126.209 201.218C128.49 194.716 137.393 192.04 142.942 195.964C147.455 199.155 151.758 203.078 156.066 206.621L167.917 216.328C171.62 219.333 175.467 222.181 178.588 225.779ZM271.398 160.201C265.809 166.426 259.738 172.26 253.798 178.116C241.01 190.723 235.825 196.377 216.577 199.112C205.505 200.685 194.115 222.279 186.284 231.498C190.195 234.923 194.983 238.036 199.86 239.643C220.269 246.368 221.017 243.409 232.956 261.399C234.391 266.053 238.227 272.323 240.303 277.188L250.034 277.188C251.308 273.311 257.567 267.392 260.468 264.294L274.628 249.23C283.642 239.769 288.247 231.683 300.959 227.61C299.35 222.293 295.212 213.832 292.867 208.522L277.206 173.289C276.147 170.939 272.633 161.909 271.398 160.201ZM317.474 191.953C312.944 196.591 307.999 200.788 303.492 205.404C305.876 212.544 310.185 220.266 312.608 227.61C325.366 228.227 329.991 229.446 343.074 225.779C348.407 224.232 353.883 222.57 359.247 221.182L333.338 202.997C328.254 199.462 322.423 195.608 317.474 191.953ZM136.7 204.116C135.057 206.799 133.592 212.272 132.632 215.439L118.554 261.764C117.069 266.76 115.299 272.169 114.038 277.188L205.875 277.188L228.514 277.188C226.14 271.846 221.166 260.291 216.712 256.947C209.444 251.49 197.689 251.318 189.251 246.304C174.887 237.768 158.956 222.193 145.331 211.331C143.594 209.946 138.021 204.776 136.7 204.116ZM404.127 217.256C381.801 223.956 359.216 233.062 336.416 237.968C331.674 238.988 325.779 238.581 320.939 238.469C303.109 237.928 303.914 233.447 290.719 247.387L267.051 272.332C266.289 273.119 262.92 276.47 262.518 277.188L370.95 277.193C375.375 277.195 380.51 277.38 384.826 277.188C385.575 275.649 386.761 271.554 387.373 269.693L404.355 219.507C404.619 218.716 404.775 218.149 404.634 217.35L404.127 217.256ZM439.652 258.577C427.844 257.328 413.674 259.788 401.466 259.283L395.751 277.188C403.322 277.296 411.144 278.862 411.577 288.688C411.795 293.639 408.044 296.701 405.305 300.387C404.053 301.811 402.911 302.724 401.466 303.945C418.314 299.171 439.332 280.521 449.126 266.637C453.496 260.442 445.86 257.528 439.652 258.577ZM73.217 258.577C52.1862 258.808 67.2809 272.695 75.6367 281.2C85.7163 291.46 97.8955 298.572 110.459 305.285L111.174 305.521L111.338 305.32C108.065 301.554 102.011 296.67 100.258 292.004C98.4921 287.307 106.458 264.239 108.453 258.577L73.217 258.577ZM117.946 287.69C115.452 287.682 112.953 287.663 110.459 287.69C112.377 292.946 119.001 298.026 122.854 302.179L139.13 319.719C165.47 347.636 183.734 350.733 221.665 350.732L292.837 350.733C323.419 350.733 344.625 348.247 368.314 325.342C373.413 320.252 398.788 293.859 401.198 288.31L401.369 287.924C401.401 287.846 401.433 287.768 401.466 287.69C391.879 287.344 380.258 287.69 370.464 287.691L117.946 287.69Z"/><path transform="scale(2 2)" d="M269.557 213.377C263.782 213.864 251.077 204.748 261.537 200.037C267.688 199.516 279.6 209.598 269.557 213.377Z"/><path transform="scale(2 2)" d="M229.621 211.664C231.115 210.813 231.253 210.708 232.956 210.291C238.934 210.254 249.709 220.669 239.073 223.823C234.05 223.507 225.682 218.219 229.621 211.664Z"/><path transform="scale(2 2)" d="M253.277 248.69C246.314 248.791 235.105 237.155 245.801 234.54C252.678 235.165 264.116 245.688 253.277 248.69Z"/><path transform="scale(2 2)" d="M149.364 248.69C143.562 249.423 135.323 240.603 152.603 237.318C157.886 236.405 165.773 244.465 149.364 248.69Z"/><path transform="scale(2 2)" d="M361.233 257.629C355.456 258.357 345.595 245.894 353.998 241.534C359.517 240.944 369.624 253.581 361.233 257.629Z"/><path transform="scale(2 2)" d="M330.75 267.717C324.649 267.851 312.592 256.585 322.337 252.04C328.286 251.713 340.031 263.963 330.75 267.717Z"/><path transform="scale(2 2)" d="M169.476 267.717C161.829 267.65 157.995 258.705 174.474 255.322C178.857 254.911 182.064 258.041 180.493 262.459C179.466 265.349 172.582 266.697 169.476 267.717Z"/></svg>